<mxfile host="app.diagrams.net" modified="2021-05-05T08:42:07.804Z" agent="5.0 (Windows NT 10.0; Win64; x64) AppleWebKit/537.36 (KHTML, like Gecko) Chrome/90.0.4430.93 Safari/537.36 Edg/90.0.818.51" etag="OCtckYcVk1MmZ0jZGuIQ" version="14.6.10" type="github" pages="2">
  <diagram id="eCjGNm2GLjPbMo6F0T3D" name="第 1 页">
    <mxGraphModel dx="2697" dy="1002" grid="1" gridSize="10" guides="1" tooltips="1" connect="1" arrows="1" fold="1" page="1" pageScale="1" pageWidth="1654" pageHeight="1169" math="0" shadow="0">
      <root>
        <mxCell id="0" />
        <mxCell id="1" parent="0" />
        <mxCell id="WAPY5PIzzvvR43ueYeDy-15" value="" style="rounded=1;whiteSpace=wrap;html=1;arcSize=2;" parent="1" vertex="1">
          <mxGeometry x="190" y="60" width="1240" height="1040" as="geometry" />
        </mxCell>
        <mxCell id="58mPNhmi3da9h_Qfzq5d-2" value="網路專用集區" style="verticalLabelPosition=bottom;verticalAlign=top;html=1;shape=mxgraph.flowchart.on-page_reference;flipH=1;" parent="1" vertex="1">
          <mxGeometry x="220" y="99.99999999999997" width="180" height="180" as="geometry" />
        </mxCell>
        <mxCell id="58mPNhmi3da9h_Qfzq5d-1" value="&lt;span style=&quot;background-color: rgb(255 , 0 , 0)&quot;&gt;&lt;font color=&quot;#ffffff&quot; style=&quot;font-size: 14px&quot;&gt;南港&lt;/font&gt;&lt;/span&gt;" style="shadow=0;dashed=0;html=1;labelPosition=center;verticalLabelPosition=bottom;verticalAlign=top;align=center;outlineConnect=0;shape=mxgraph.veeam.3d.vmware_host;" parent="1" vertex="1">
          <mxGeometry x="255" y="140.99999999999997" width="110" height="98" as="geometry" />
        </mxCell>
        <mxCell id="58mPNhmi3da9h_Qfzq5d-3" value="人工智慧集區" style="verticalLabelPosition=bottom;verticalAlign=top;html=1;shape=mxgraph.flowchart.on-page_reference;flipH=1;" parent="1" vertex="1">
          <mxGeometry x="418" y="99.99999999999997" width="180" height="180" as="geometry" />
        </mxCell>
        <mxCell id="58mPNhmi3da9h_Qfzq5d-4" value="第三級系統A集區&lt;br&gt;(既有設備整併)" style="verticalLabelPosition=bottom;verticalAlign=top;html=1;shape=mxgraph.flowchart.on-page_reference;flipH=1;" parent="1" vertex="1">
          <mxGeometry x="620" y="99.99999999999997" width="180" height="180" as="geometry" />
        </mxCell>
        <mxCell id="58mPNhmi3da9h_Qfzq5d-5" value="第三級系統B集區&lt;br&gt;(新建)" style="verticalLabelPosition=bottom;verticalAlign=top;html=1;shape=mxgraph.flowchart.on-page_reference;flipH=1;" parent="1" vertex="1">
          <mxGeometry x="820" y="99.99999999999997" width="180" height="180" as="geometry" />
        </mxCell>
        <mxCell id="58mPNhmi3da9h_Qfzq5d-6" value="第一、二集系統集區" style="verticalLabelPosition=bottom;verticalAlign=top;html=1;shape=mxgraph.flowchart.on-page_reference;flipH=1;" parent="1" vertex="1">
          <mxGeometry x="1020" y="99.99999999999997" width="180" height="180" as="geometry" />
        </mxCell>
        <mxCell id="58mPNhmi3da9h_Qfzq5d-7" value="異地集區" style="verticalLabelPosition=bottom;verticalAlign=top;html=1;shape=mxgraph.flowchart.on-page_reference;flipH=1;" parent="1" vertex="1">
          <mxGeometry x="1220" y="99.99999999999997" width="180" height="180" as="geometry" />
        </mxCell>
        <mxCell id="58mPNhmi3da9h_Qfzq5d-18" value="&lt;span style=&quot;color: rgb(255 , 255 , 255) ; background-color: rgb(255 , 0 , 0)&quot;&gt;&lt;font style=&quot;font-size: 14px&quot;&gt;南港&lt;/font&gt;&lt;/span&gt;" style="shadow=0;dashed=0;html=1;labelPosition=center;verticalLabelPosition=bottom;verticalAlign=top;align=center;outlineConnect=0;shape=mxgraph.veeam.3d.vmware_host;" parent="1" vertex="1">
          <mxGeometry x="453" y="140.99999999999997" width="110" height="98" as="geometry" />
        </mxCell>
        <mxCell id="58mPNhmi3da9h_Qfzq5d-19" value="&lt;span style=&quot;color: rgb(255 , 255 , 255) ; background-color: rgb(255 , 0 , 0)&quot;&gt;&lt;font style=&quot;font-size: 14px&quot;&gt;南港&lt;/font&gt;&lt;/span&gt;" style="shadow=0;dashed=0;html=1;labelPosition=center;verticalLabelPosition=bottom;verticalAlign=top;align=center;outlineConnect=0;shape=mxgraph.veeam.3d.vmware_host;" parent="1" vertex="1">
          <mxGeometry x="655" y="140.99999999999997" width="110" height="98" as="geometry" />
        </mxCell>
        <mxCell id="58mPNhmi3da9h_Qfzq5d-20" value="&lt;span style=&quot;color: rgb(255 , 255 , 255) ; background-color: rgb(255 , 0 , 0)&quot;&gt;&lt;font style=&quot;font-size: 14px&quot;&gt;南港&lt;/font&gt;&lt;/span&gt;" style="shadow=0;dashed=0;html=1;labelPosition=center;verticalLabelPosition=bottom;verticalAlign=top;align=center;outlineConnect=0;shape=mxgraph.veeam.3d.vmware_host;" parent="1" vertex="1">
          <mxGeometry x="855" y="140.99999999999997" width="110" height="98" as="geometry" />
        </mxCell>
        <mxCell id="58mPNhmi3da9h_Qfzq5d-21" value="&lt;span style=&quot;color: rgb(255 , 255 , 255) ; background-color: rgb(255 , 0 , 0)&quot;&gt;&lt;font style=&quot;font-size: 14px&quot;&gt;南港&lt;/font&gt;&lt;/span&gt;" style="shadow=0;dashed=0;html=1;labelPosition=center;verticalLabelPosition=bottom;verticalAlign=top;align=center;outlineConnect=0;shape=mxgraph.veeam.3d.vmware_host;" parent="1" vertex="1">
          <mxGeometry x="1055" y="140.99999999999997" width="110" height="98" as="geometry" />
        </mxCell>
        <mxCell id="58mPNhmi3da9h_Qfzq5d-22" value="&lt;span style=&quot;color: rgb(255 , 255 , 255) ; background-color: rgb(255 , 0 , 0)&quot;&gt;&lt;font style=&quot;font-size: 14px&quot;&gt;板橋&lt;/font&gt;&lt;/span&gt;" style="shadow=0;dashed=0;html=1;labelPosition=center;verticalLabelPosition=bottom;verticalAlign=top;align=center;outlineConnect=0;shape=mxgraph.veeam.3d.vmware_host;" parent="1" vertex="1">
          <mxGeometry x="1255" y="140.99999999999997" width="110" height="98" as="geometry" />
        </mxCell>
        <mxCell id="58mPNhmi3da9h_Qfzq5d-23" value="集區專用Datastore&lt;br&gt;(rpo&amp;lt;&amp;gt;0)&lt;br&gt;ibm v5030" style="shadow=0;dashed=0;html=1;labelPosition=center;verticalLabelPosition=bottom;verticalAlign=top;align=center;outlineConnect=0;shape=mxgraph.veeam.3d.datastore;aspect=fixed;" parent="1" vertex="1">
          <mxGeometry x="285" y="340" width="50" height="68.16" as="geometry" />
        </mxCell>
        <mxCell id="58mPNhmi3da9h_Qfzq5d-25" value="集區專用Datastore&lt;br&gt;(rpo&amp;lt;&amp;gt;0)" style="shadow=0;dashed=0;html=1;labelPosition=center;verticalLabelPosition=bottom;verticalAlign=top;align=center;outlineConnect=0;shape=mxgraph.veeam.3d.datastore;aspect=fixed;" parent="1" vertex="1">
          <mxGeometry x="483" y="340" width="50" height="68.16" as="geometry" />
        </mxCell>
        <mxCell id="58mPNhmi3da9h_Qfzq5d-26" value="集區專用Datastore&lt;br&gt;(rpo&amp;lt;&amp;gt;0)&lt;br&gt;emc unity / emc vnx 5200&amp;nbsp;" style="shadow=0;dashed=0;html=1;labelPosition=center;verticalLabelPosition=bottom;verticalAlign=top;align=center;outlineConnect=0;shape=mxgraph.veeam.3d.datastore;aspect=fixed;" parent="1" vertex="1">
          <mxGeometry x="685" y="340" width="50" height="68.16" as="geometry" />
        </mxCell>
        <mxCell id="58mPNhmi3da9h_Qfzq5d-27" value="集區專用Datastore&lt;br&gt;(rpo&amp;lt;&amp;gt;0)&lt;br&gt;emc unity" style="shadow=0;dashed=0;html=1;labelPosition=center;verticalLabelPosition=bottom;verticalAlign=top;align=center;outlineConnect=0;shape=mxgraph.veeam.3d.datastore;aspect=fixed;" parent="1" vertex="1">
          <mxGeometry x="885" y="340" width="50" height="68.16" as="geometry" />
        </mxCell>
        <mxCell id="58mPNhmi3da9h_Qfzq5d-28" value="集區專用Datastore&lt;br&gt;(rpo=0)&lt;br&gt;emc vplex+unity / vmware vsan" style="shadow=0;dashed=0;html=1;labelPosition=center;verticalLabelPosition=bottom;verticalAlign=top;align=center;outlineConnect=0;shape=mxgraph.veeam.3d.datastore;aspect=fixed;" parent="1" vertex="1">
          <mxGeometry x="1085" y="340" width="50" height="68.16" as="geometry" />
        </mxCell>
        <mxCell id="58mPNhmi3da9h_Qfzq5d-29" value="集區專用Datastore&lt;br&gt;(rpo&amp;lt;&amp;gt;0)&lt;br&gt;emc unity" style="shadow=0;dashed=0;html=1;labelPosition=center;verticalLabelPosition=bottom;verticalAlign=top;align=center;outlineConnect=0;shape=mxgraph.veeam.3d.datastore;aspect=fixed;" parent="1" vertex="1">
          <mxGeometry x="1285" y="340" width="50" height="68.16" as="geometry" />
        </mxCell>
        <mxCell id="58mPNhmi3da9h_Qfzq5d-36" value="跨雙中心Datastore&lt;br&gt;(rpo=0)&lt;br&gt;emc vplex+unity" style="shadow=0;dashed=0;html=1;labelPosition=center;verticalLabelPosition=bottom;verticalAlign=top;align=center;outlineConnect=0;shape=mxgraph.veeam.3d.datastore;aspect=fixed;" parent="1" vertex="1">
          <mxGeometry x="1085" y="500" width="50" height="68.16" as="geometry" />
        </mxCell>
        <mxCell id="WAPY5PIzzvvR43ueYeDy-1" value="" style="endArrow=none;dashed=1;html=1;" parent="1" edge="1">
          <mxGeometry width="50" height="50" relative="1" as="geometry">
            <mxPoint x="210" y="320" as="sourcePoint" />
            <mxPoint x="1410" y="320" as="targetPoint" />
          </mxGeometry>
        </mxCell>
        <mxCell id="WAPY5PIzzvvR43ueYeDy-2" value="" style="endArrow=none;dashed=1;html=1;" parent="1" edge="1">
          <mxGeometry width="50" height="50" relative="1" as="geometry">
            <mxPoint x="210" y="480" as="sourcePoint" />
            <mxPoint x="1410" y="480" as="targetPoint" />
          </mxGeometry>
        </mxCell>
        <mxCell id="WAPY5PIzzvvR43ueYeDy-4" value="" style="endArrow=none;dashed=1;html=1;" parent="1" edge="1">
          <mxGeometry width="50" height="50" relative="1" as="geometry">
            <mxPoint x="410" y="1080" as="sourcePoint" />
            <mxPoint x="410" y="80" as="targetPoint" />
          </mxGeometry>
        </mxCell>
        <mxCell id="WAPY5PIzzvvR43ueYeDy-5" value="" style="endArrow=none;dashed=1;html=1;" parent="1" edge="1">
          <mxGeometry width="50" height="50" relative="1" as="geometry">
            <mxPoint x="610" y="1080" as="sourcePoint" />
            <mxPoint x="610" y="80" as="targetPoint" />
          </mxGeometry>
        </mxCell>
        <mxCell id="WAPY5PIzzvvR43ueYeDy-6" value="" style="endArrow=none;dashed=1;html=1;" parent="1" edge="1">
          <mxGeometry width="50" height="50" relative="1" as="geometry">
            <mxPoint x="810" y="1080" as="sourcePoint" />
            <mxPoint x="810" y="80" as="targetPoint" />
          </mxGeometry>
        </mxCell>
        <mxCell id="WAPY5PIzzvvR43ueYeDy-7" value="" style="endArrow=none;dashed=1;html=1;" parent="1" edge="1">
          <mxGeometry width="50" height="50" relative="1" as="geometry">
            <mxPoint x="1010" y="480" as="sourcePoint" />
            <mxPoint x="1010" y="80" as="targetPoint" />
          </mxGeometry>
        </mxCell>
        <mxCell id="WAPY5PIzzvvR43ueYeDy-8" value="" style="endArrow=none;dashed=1;html=1;" parent="1" edge="1">
          <mxGeometry width="50" height="50" relative="1" as="geometry">
            <mxPoint x="1210" y="480" as="sourcePoint" />
            <mxPoint x="1210" y="80" as="targetPoint" />
          </mxGeometry>
        </mxCell>
        <mxCell id="WAPY5PIzzvvR43ueYeDy-9" value="" style="endArrow=none;dashed=1;html=1;" parent="1" edge="1">
          <mxGeometry width="50" height="50" relative="1" as="geometry">
            <mxPoint x="210" y="1080" as="sourcePoint" />
            <mxPoint x="210" y="80" as="targetPoint" />
          </mxGeometry>
        </mxCell>
        <mxCell id="WAPY5PIzzvvR43ueYeDy-10" value="" style="endArrow=none;dashed=1;html=1;" parent="1" edge="1">
          <mxGeometry width="50" height="50" relative="1" as="geometry">
            <mxPoint x="1410" y="1080" as="sourcePoint" />
            <mxPoint x="1410" y="80" as="targetPoint" />
          </mxGeometry>
        </mxCell>
        <mxCell id="WAPY5PIzzvvR43ueYeDy-11" value="" style="endArrow=none;dashed=1;html=1;" parent="1" edge="1">
          <mxGeometry width="50" height="50" relative="1" as="geometry">
            <mxPoint x="210" y="640" as="sourcePoint" />
            <mxPoint x="1410" y="640" as="targetPoint" />
          </mxGeometry>
        </mxCell>
        <mxCell id="WAPY5PIzzvvR43ueYeDy-12" value="" style="endArrow=none;dashed=1;html=1;" parent="1" edge="1">
          <mxGeometry width="50" height="50" relative="1" as="geometry">
            <mxPoint x="210" y="80" as="sourcePoint" />
            <mxPoint x="1410" y="80" as="targetPoint" />
          </mxGeometry>
        </mxCell>
      </root>
    </mxGraphModel>
  </diagram>
  <diagram id="y8TdleJtlPKRyH-Oja8K" name="第 2 页">
    <mxGraphModel dx="2697" dy="1002" grid="1" gridSize="10" guides="1" tooltips="1" connect="1" arrows="1" fold="1" page="1" pageScale="1" pageWidth="1654" pageHeight="1169" math="0" shadow="0">
      <root>
        <mxCell id="g2-eiJZlZVtttxnz69Y9-0" />
        <mxCell id="g2-eiJZlZVtttxnz69Y9-1" parent="g2-eiJZlZVtttxnz69Y9-0" />
        <mxCell id="rldEldRAc6CjuJPPCe8D-50" value="" style="strokeWidth=2;html=1;shape=mxgraph.flowchart.start_2;whiteSpace=wrap;aspect=fixed;fillColor=#FFFF66;dashed=1;strokeColor=#999900;" vertex="1" parent="g2-eiJZlZVtttxnz69Y9-1">
          <mxGeometry x="317" y="714.5" width="121" height="121" as="geometry" />
        </mxCell>
        <mxCell id="ZKXLGBpWmhtrfqsXS5p7-31" value="" style="shadow=0;dashed=0;html=1;labelPosition=center;verticalLabelPosition=bottom;verticalAlign=top;align=center;outlineConnect=0;shape=mxgraph.veeam.3d.switch;" parent="g2-eiJZlZVtttxnz69Y9-1" vertex="1">
          <mxGeometry x="461.04" y="636" width="110" height="58" as="geometry" />
        </mxCell>
        <mxCell id="ZKXLGBpWmhtrfqsXS5p7-34" value="" style="shadow=0;dashed=0;html=1;labelPosition=center;verticalLabelPosition=bottom;verticalAlign=top;align=center;outlineConnect=0;shape=mxgraph.veeam.3d.switch;" parent="g2-eiJZlZVtttxnz69Y9-1" vertex="1">
          <mxGeometry x="461.04" y="596" width="110" height="58" as="geometry" />
        </mxCell>
        <mxCell id="ZKXLGBpWmhtrfqsXS5p7-13" value="" style="shadow=0;dashed=0;html=1;labelPosition=center;verticalLabelPosition=bottom;verticalAlign=top;align=center;outlineConnect=0;shape=mxgraph.veeam.3d.switch;" parent="g2-eiJZlZVtttxnz69Y9-1" vertex="1">
          <mxGeometry x="461.04" y="508" width="110" height="58" as="geometry" />
        </mxCell>
        <mxCell id="ZKXLGBpWmhtrfqsXS5p7-20" value="" style="shadow=0;dashed=0;html=1;labelPosition=center;verticalLabelPosition=bottom;verticalAlign=top;align=center;outlineConnect=0;shape=mxgraph.veeam.3d.switch;" parent="g2-eiJZlZVtttxnz69Y9-1" vertex="1">
          <mxGeometry x="460.04" y="467.5" width="110" height="58" as="geometry" />
        </mxCell>
        <mxCell id="ZKXLGBpWmhtrfqsXS5p7-4" value="" style="shadow=0;dashed=0;html=1;labelPosition=center;verticalLabelPosition=bottom;verticalAlign=top;align=center;outlineConnect=0;shape=mxgraph.veeam.3d.network_card;" parent="g2-eiJZlZVtttxnz69Y9-1" vertex="1">
          <mxGeometry x="604.4200000000001" y="517" width="38" height="40" as="geometry" />
        </mxCell>
        <mxCell id="ZKXLGBpWmhtrfqsXS5p7-22" value="" style="shadow=0;dashed=0;html=1;labelPosition=center;verticalLabelPosition=bottom;verticalAlign=top;align=center;outlineConnect=0;shape=mxgraph.veeam.3d.network_card;" parent="g2-eiJZlZVtttxnz69Y9-1" vertex="1">
          <mxGeometry x="604.4200000000001" y="477" width="38" height="40" as="geometry" />
        </mxCell>
        <mxCell id="ZKXLGBpWmhtrfqsXS5p7-33" value="" style="shadow=0;dashed=0;html=1;labelPosition=center;verticalLabelPosition=bottom;verticalAlign=top;align=center;outlineConnect=0;shape=mxgraph.veeam.3d.network_card;" parent="g2-eiJZlZVtttxnz69Y9-1" vertex="1">
          <mxGeometry x="604.4200000000001" y="645" width="38" height="40" as="geometry" />
        </mxCell>
        <mxCell id="ZKXLGBpWmhtrfqsXS5p7-36" value="" style="shadow=0;dashed=0;html=1;labelPosition=center;verticalLabelPosition=bottom;verticalAlign=top;align=center;outlineConnect=0;shape=mxgraph.veeam.3d.network_card;" parent="g2-eiJZlZVtttxnz69Y9-1" vertex="1">
          <mxGeometry x="604.4200000000001" y="605" width="38" height="40" as="geometry" />
        </mxCell>
        <mxCell id="rldEldRAc6CjuJPPCe8D-0" value="&lt;span style=&quot;background-color: rgb(255 , 0 , 0)&quot;&gt;&lt;font color=&quot;#ffffff&quot;&gt;1gb switch - 1&lt;/font&gt;&lt;/span&gt;" style="text;html=1;resizable=0;autosize=1;align=center;verticalAlign=middle;points=[];fillColor=none;strokeColor=none;rounded=0;" vertex="1" parent="g2-eiJZlZVtttxnz69Y9-1">
          <mxGeometry x="470.04" y="486.5" width="90" height="20" as="geometry" />
        </mxCell>
        <mxCell id="rldEldRAc6CjuJPPCe8D-2" value="&lt;font color=&quot;#ffffff&quot; style=&quot;background-color: rgb(255 , 0 , 0)&quot;&gt;10gb switch - 1&lt;/font&gt;" style="text;html=1;resizable=0;autosize=1;align=center;verticalAlign=middle;points=[];fillColor=none;strokeColor=none;rounded=0;" vertex="1" parent="g2-eiJZlZVtttxnz69Y9-1">
          <mxGeometry x="466.04" y="615" width="100" height="20" as="geometry" />
        </mxCell>
        <mxCell id="rldEldRAc6CjuJPPCe8D-18" value="" style="shadow=0;dashed=0;html=1;labelPosition=center;verticalLabelPosition=bottom;verticalAlign=top;align=center;outlineConnect=0;shape=mxgraph.veeam.3d.network_card;" vertex="1" parent="g2-eiJZlZVtttxnz69Y9-1">
          <mxGeometry x="603.4200000000001" y="780.5" width="38" height="40" as="geometry" />
        </mxCell>
        <mxCell id="rldEldRAc6CjuJPPCe8D-20" value="" style="shadow=0;dashed=0;html=1;labelPosition=center;verticalLabelPosition=bottom;verticalAlign=top;align=center;outlineConnect=0;shape=mxgraph.veeam.3d.network_card;" vertex="1" parent="g2-eiJZlZVtttxnz69Y9-1">
          <mxGeometry x="603.4200000000001" y="740.5" width="38" height="40" as="geometry" />
        </mxCell>
        <mxCell id="rldEldRAc6CjuJPPCe8D-29" value="" style="endArrow=none;html=1;strokeColor=#FF0000;" edge="1" parent="g2-eiJZlZVtttxnz69Y9-1">
          <mxGeometry width="50" height="50" relative="1" as="geometry">
            <mxPoint x="461.5" y="760.5" as="sourcePoint" />
            <mxPoint x="428.0000000000001" y="760" as="targetPoint" />
          </mxGeometry>
        </mxCell>
        <mxCell id="rldEldRAc6CjuJPPCe8D-30" value="" style="endArrow=none;html=1;strokeColor=#FF0000;" edge="1" parent="g2-eiJZlZVtttxnz69Y9-1">
          <mxGeometry width="50" height="50" relative="1" as="geometry">
            <mxPoint x="461.5" y="798.66" as="sourcePoint" />
            <mxPoint x="427.9999999999998" y="798.16" as="targetPoint" />
          </mxGeometry>
        </mxCell>
        <mxCell id="rldEldRAc6CjuJPPCe8D-4" value="" style="shadow=0;dashed=0;html=1;labelPosition=center;verticalLabelPosition=bottom;verticalAlign=top;align=center;outlineConnect=0;shape=mxgraph.veeam.3d.physical_storage;" vertex="1" parent="g2-eiJZlZVtttxnz69Y9-1">
          <mxGeometry x="319.82" y="767.5" width="108" height="60" as="geometry" />
        </mxCell>
        <mxCell id="rldEldRAc6CjuJPPCe8D-5" value="" style="shadow=0;dashed=0;html=1;labelPosition=center;verticalLabelPosition=bottom;verticalAlign=top;align=center;outlineConnect=0;shape=mxgraph.veeam.3d.physical_storage;" vertex="1" parent="g2-eiJZlZVtttxnz69Y9-1">
          <mxGeometry x="321.5" y="720.5" width="108" height="60" as="geometry" />
        </mxCell>
        <mxCell id="rldEldRAc6CjuJPPCe8D-31" value="" style="endArrow=none;html=1;strokeColor=#FF0000;" edge="1" parent="g2-eiJZlZVtttxnz69Y9-1">
          <mxGeometry width="50" height="50" relative="1" as="geometry">
            <mxPoint x="461.5" y="798.5" as="sourcePoint" />
            <mxPoint x="429.5" y="761.5" as="targetPoint" />
          </mxGeometry>
        </mxCell>
        <mxCell id="rldEldRAc6CjuJPPCe8D-32" value="" style="endArrow=none;html=1;strokeColor=#FF0000;" edge="1" parent="g2-eiJZlZVtttxnz69Y9-1">
          <mxGeometry width="50" height="50" relative="1" as="geometry">
            <mxPoint x="461.5" y="761.5" as="sourcePoint" />
            <mxPoint x="429.5" y="798.5" as="targetPoint" />
          </mxGeometry>
        </mxCell>
        <mxCell id="rldEldRAc6CjuJPPCe8D-38" value="" style="endArrow=none;html=1;strokeColor=#FF0000;" edge="1" parent="g2-eiJZlZVtttxnz69Y9-1">
          <mxGeometry width="50" height="50" relative="1" as="geometry">
            <mxPoint x="603.54" y="760" as="sourcePoint" />
            <mxPoint x="570.04" y="759.5" as="targetPoint" />
          </mxGeometry>
        </mxCell>
        <mxCell id="rldEldRAc6CjuJPPCe8D-39" value="" style="endArrow=none;html=1;strokeColor=#FF0000;" edge="1" parent="g2-eiJZlZVtttxnz69Y9-1">
          <mxGeometry width="50" height="50" relative="1" as="geometry">
            <mxPoint x="603.54" y="798.1599999999999" as="sourcePoint" />
            <mxPoint x="570.0399999999997" y="797.6599999999999" as="targetPoint" />
          </mxGeometry>
        </mxCell>
        <mxCell id="rldEldRAc6CjuJPPCe8D-42" value="" style="endArrow=none;html=1;strokeColor=#009900;" edge="1" parent="g2-eiJZlZVtttxnz69Y9-1">
          <mxGeometry width="50" height="50" relative="1" as="geometry">
            <mxPoint x="604.54" y="627.5" as="sourcePoint" />
            <mxPoint x="571.04" y="627" as="targetPoint" />
          </mxGeometry>
        </mxCell>
        <mxCell id="rldEldRAc6CjuJPPCe8D-43" value="" style="endArrow=none;html=1;strokeColor=#009900;" edge="1" parent="g2-eiJZlZVtttxnz69Y9-1">
          <mxGeometry width="50" height="50" relative="1" as="geometry">
            <mxPoint x="604.54" y="665.6599999999999" as="sourcePoint" />
            <mxPoint x="571.0399999999997" y="665.1599999999999" as="targetPoint" />
          </mxGeometry>
        </mxCell>
        <mxCell id="rldEldRAc6CjuJPPCe8D-44" value="" style="endArrow=none;html=1;strokeColor=#0000CC;" edge="1" parent="g2-eiJZlZVtttxnz69Y9-1">
          <mxGeometry width="50" height="50" relative="1" as="geometry">
            <mxPoint x="604.54" y="665.5" as="sourcePoint" />
            <mxPoint x="572.54" y="628.5" as="targetPoint" />
          </mxGeometry>
        </mxCell>
        <mxCell id="rldEldRAc6CjuJPPCe8D-45" value="" style="endArrow=none;html=1;strokeColor=#0000CC;" edge="1" parent="g2-eiJZlZVtttxnz69Y9-1">
          <mxGeometry width="50" height="50" relative="1" as="geometry">
            <mxPoint x="604.54" y="628.5" as="sourcePoint" />
            <mxPoint x="572.54" y="665.5" as="targetPoint" />
          </mxGeometry>
        </mxCell>
        <mxCell id="rldEldRAc6CjuJPPCe8D-46" value="" style="endArrow=none;html=1;" edge="1" parent="g2-eiJZlZVtttxnz69Y9-1">
          <mxGeometry width="50" height="50" relative="1" as="geometry">
            <mxPoint x="603.4200000000001" y="499" as="sourcePoint" />
            <mxPoint x="569.9200000000001" y="498.5" as="targetPoint" />
          </mxGeometry>
        </mxCell>
        <mxCell id="rldEldRAc6CjuJPPCe8D-47" value="" style="endArrow=none;html=1;" edge="1" parent="g2-eiJZlZVtttxnz69Y9-1">
          <mxGeometry width="50" height="50" relative="1" as="geometry">
            <mxPoint x="603.4200000000001" y="537.1599999999999" as="sourcePoint" />
            <mxPoint x="569.9199999999998" y="536.6599999999999" as="targetPoint" />
          </mxGeometry>
        </mxCell>
        <mxCell id="rldEldRAc6CjuJPPCe8D-21" value="" style="shadow=0;dashed=0;html=1;labelPosition=center;verticalLabelPosition=bottom;verticalAlign=top;align=center;outlineConnect=0;shape=mxgraph.veeam.3d.switch;" vertex="1" parent="g2-eiJZlZVtttxnz69Y9-1">
          <mxGeometry x="460.04" y="768.5" width="110" height="58" as="geometry" />
        </mxCell>
        <mxCell id="rldEldRAc6CjuJPPCe8D-22" value="" style="shadow=0;dashed=0;html=1;labelPosition=center;verticalLabelPosition=bottom;verticalAlign=top;align=center;outlineConnect=0;shape=mxgraph.veeam.3d.switch;" vertex="1" parent="g2-eiJZlZVtttxnz69Y9-1">
          <mxGeometry x="461.03999999999996" y="731.5" width="110" height="58" as="geometry" />
        </mxCell>
        <mxCell id="rldEldRAc6CjuJPPCe8D-1" value="&lt;font color=&quot;#ffffff&quot; style=&quot;background-color: rgb(255 , 0 , 0)&quot;&gt;1gb switch - 2&lt;/font&gt;" style="text;html=1;resizable=0;autosize=1;align=center;verticalAlign=middle;points=[];fillColor=none;strokeColor=none;rounded=0;" vertex="1" parent="g2-eiJZlZVtttxnz69Y9-1">
          <mxGeometry x="471.04" y="527" width="90" height="20" as="geometry" />
        </mxCell>
        <mxCell id="rldEldRAc6CjuJPPCe8D-3" value="&lt;font color=&quot;#ffffff&quot; style=&quot;background-color: rgb(255 , 0 , 0)&quot;&gt;10gb switch - 2&lt;/font&gt;" style="text;html=1;resizable=0;autosize=1;align=center;verticalAlign=middle;points=[];fillColor=none;strokeColor=none;rounded=0;" vertex="1" parent="g2-eiJZlZVtttxnz69Y9-1">
          <mxGeometry x="466.04" y="655" width="100" height="20" as="geometry" />
        </mxCell>
        <mxCell id="rldEldRAc6CjuJPPCe8D-51" value="&lt;font color=&quot;#ffffff&quot; style=&quot;background-color: rgb(255 , 0 , 0)&quot;&gt;san switch - 1&lt;/font&gt;" style="text;html=1;resizable=0;autosize=1;align=center;verticalAlign=middle;points=[];fillColor=none;strokeColor=none;rounded=0;" vertex="1" parent="g2-eiJZlZVtttxnz69Y9-1">
          <mxGeometry x="471.04" y="747.5" width="90" height="20" as="geometry" />
        </mxCell>
        <mxCell id="rldEldRAc6CjuJPPCe8D-52" value="&lt;font color=&quot;#ffffff&quot; style=&quot;background-color: rgb(255 , 0 , 0)&quot;&gt;san switch - 2&lt;/font&gt;" style="text;html=1;resizable=0;autosize=1;align=center;verticalAlign=middle;points=[];fillColor=none;strokeColor=none;rounded=0;" vertex="1" parent="g2-eiJZlZVtttxnz69Y9-1">
          <mxGeometry x="470.04" y="787.5" width="90" height="20" as="geometry" />
        </mxCell>
        <mxCell id="rldEldRAc6CjuJPPCe8D-53" value="&lt;font color=&quot;#ffffff&quot; style=&quot;background-color: rgb(255 , 0 , 0)&quot;&gt;san storage - 1&lt;/font&gt;" style="text;html=1;resizable=0;autosize=1;align=center;verticalAlign=middle;points=[];fillColor=none;strokeColor=none;rounded=0;" vertex="1" parent="g2-eiJZlZVtttxnz69Y9-1">
          <mxGeometry x="325.5" y="740.5" width="100" height="20" as="geometry" />
        </mxCell>
        <mxCell id="rldEldRAc6CjuJPPCe8D-54" value="&lt;font color=&quot;#ffffff&quot; style=&quot;background-color: rgb(255 , 0 , 0)&quot;&gt;san storage - 2&lt;/font&gt;" style="text;html=1;resizable=0;autosize=1;align=center;verticalAlign=middle;points=[];fillColor=none;strokeColor=none;rounded=0;" vertex="1" parent="g2-eiJZlZVtttxnz69Y9-1">
          <mxGeometry x="323.82" y="787.5" width="100" height="20" as="geometry" />
        </mxCell>
        <mxCell id="rldEldRAc6CjuJPPCe8D-55" value="&lt;font color=&quot;#ffffff&quot; style=&quot;background-color: rgb(255 , 0 , 0)&quot;&gt;san switch - 1&lt;/font&gt;" style="text;html=1;resizable=0;autosize=1;align=center;verticalAlign=middle;points=[];fillColor=none;strokeColor=none;rounded=0;" vertex="1" parent="g2-eiJZlZVtttxnz69Y9-1">
          <mxGeometry x="471.03999999999996" y="750.5" width="90" height="20" as="geometry" />
        </mxCell>
        <mxCell id="rldEldRAc6CjuJPPCe8D-57" value="" style="line;strokeWidth=1;direction=south;html=1;fillColor=#FFFFFF;strokeColor=#FF0000;" vertex="1" parent="g2-eiJZlZVtttxnz69Y9-1">
          <mxGeometry x="935" y="450" width="10" height="390" as="geometry" />
        </mxCell>
        <mxCell id="rldEldRAc6CjuJPPCe8D-58" value="" style="line;strokeWidth=1;direction=south;html=1;dashed=1;fillColor=#FFFFFF;" vertex="1" parent="g2-eiJZlZVtttxnz69Y9-1">
          <mxGeometry x="987" y="587" width="10" height="144" as="geometry" />
        </mxCell>
        <mxCell id="rldEldRAc6CjuJPPCe8D-59" value="" style="line;strokeWidth=1;direction=south;html=1;dashed=1;fillColor=#FFFFFF;" vertex="1" parent="g2-eiJZlZVtttxnz69Y9-1">
          <mxGeometry x="1277" y="694" width="10" height="144" as="geometry" />
        </mxCell>
        <mxCell id="ZKXLGBpWmhtrfqsXS5p7-2" value="" style="shadow=0;dashed=0;html=1;labelPosition=center;verticalLabelPosition=bottom;verticalAlign=top;align=center;outlineConnect=0;shape=mxgraph.veeam.3d.vmware_host;aspect=fixed;" parent="g2-eiJZlZVtttxnz69Y9-1" vertex="1">
          <mxGeometry x="992" y="545.5" width="134.7" height="120" as="geometry" />
        </mxCell>
        <mxCell id="rldEldRAc6CjuJPPCe8D-6" value="" style="shadow=0;dashed=0;html=1;labelPosition=center;verticalLabelPosition=bottom;verticalAlign=top;align=center;outlineConnect=0;shape=mxgraph.veeam.3d.vmware_host;aspect=fixed;" vertex="1" parent="g2-eiJZlZVtttxnz69Y9-1">
          <mxGeometry x="1062" y="569.5" width="134.7" height="120" as="geometry" />
        </mxCell>
        <mxCell id="rldEldRAc6CjuJPPCe8D-7" value="" style="shadow=0;dashed=0;html=1;labelPosition=center;verticalLabelPosition=bottom;verticalAlign=top;align=center;outlineConnect=0;shape=mxgraph.veeam.3d.vmware_host;aspect=fixed;" vertex="1" parent="g2-eiJZlZVtttxnz69Y9-1">
          <mxGeometry x="1132" y="594.5" width="134.7" height="120" as="geometry" />
        </mxCell>
        <mxCell id="rldEldRAc6CjuJPPCe8D-60" value="" style="edgeStyle=none;rounded=0;html=1;entryX=0.642;entryY=0.77;jettySize=auto;orthogonalLoop=1;strokeColor=#404040;strokeWidth=1;fontColor=#000000;jumpStyle=none;endArrow=block;endFill=1;startArrow=block;startFill=1;entryDx=0;entryDy=0;entryPerimeter=0;" edge="1" parent="g2-eiJZlZVtttxnz69Y9-1" target="rldEldRAc6CjuJPPCe8D-59">
          <mxGeometry width="100" relative="1" as="geometry">
            <mxPoint x="992" y="689.5" as="sourcePoint" />
            <mxPoint x="1092" y="689.5" as="targetPoint" />
          </mxGeometry>
        </mxCell>
        <mxCell id="rldEldRAc6CjuJPPCe8D-61" value="高可用 ( HA )&lt;br&gt;效能附載平衡 ( DRS )&lt;br&gt;關聯性規則 (Affinity Rule )" style="text;html=1;resizable=0;autosize=1;align=left;verticalAlign=middle;points=[];fillColor=none;strokeColor=none;rounded=0;dashed=1;rotation=0;fontSize=15;" vertex="1" parent="g2-eiJZlZVtttxnz69Y9-1">
          <mxGeometry x="1034.35" y="760.5" width="190" height="60" as="geometry" />
        </mxCell>
        <mxCell id="rldEldRAc6CjuJPPCe8D-63" value="&lt;font style=&quot;font-size: 13px&quot;&gt;management&lt;/font&gt;" style="html=1;shadow=0;dashed=0;align=center;verticalAlign=middle;shape=mxgraph.arrows2.arrow;dy=0;dx=10;notch=0;fontSize=15;strokeColor=#000000;strokeWidth=1;direction=west;fillColor=#FFFF00;" vertex="1" parent="g2-eiJZlZVtttxnz69Y9-1">
          <mxGeometry x="767" y="504.5" width="120" height="21" as="geometry" />
        </mxCell>
        <mxCell id="rldEldRAc6CjuJPPCe8D-66" value="&lt;font style=&quot;font-size: 12px&quot;&gt;1gb nic-1&lt;/font&gt;" style="text;html=1;resizable=0;autosize=1;align=left;verticalAlign=middle;points=[];fillColor=none;strokeColor=none;rounded=0;dashed=1;fontSize=13;labelBackgroundColor=#FF0000;fontColor=#FFFFFF;" vertex="1" parent="g2-eiJZlZVtttxnz69Y9-1">
          <mxGeometry x="652" y="486.5" width="60" height="20" as="geometry" />
        </mxCell>
        <mxCell id="rldEldRAc6CjuJPPCe8D-67" value="&lt;font style=&quot;font-size: 12px&quot;&gt;1gb nic-2&lt;/font&gt;" style="text;html=1;resizable=0;autosize=1;align=left;verticalAlign=middle;points=[];fillColor=none;strokeColor=none;rounded=0;dashed=1;fontSize=13;labelBackgroundColor=#FF0000;fontColor=#FFFFFF;" vertex="1" parent="g2-eiJZlZVtttxnz69Y9-1">
          <mxGeometry x="652" y="525.5" width="60" height="20" as="geometry" />
        </mxCell>
        <mxCell id="rldEldRAc6CjuJPPCe8D-68" value="&lt;font style=&quot;font-size: 12px&quot;&gt;10gb nic-1&lt;/font&gt;" style="text;html=1;resizable=0;autosize=1;align=left;verticalAlign=middle;points=[];fillColor=none;strokeColor=none;rounded=0;dashed=1;fontSize=13;labelBackgroundColor=#FF0000;fontColor=#FFFFFF;" vertex="1" parent="g2-eiJZlZVtttxnz69Y9-1">
          <mxGeometry x="652" y="615" width="70" height="20" as="geometry" />
        </mxCell>
        <mxCell id="rldEldRAc6CjuJPPCe8D-69" value="&lt;font style=&quot;font-size: 12px&quot;&gt;10gb nic-2&lt;/font&gt;" style="text;html=1;resizable=0;autosize=1;align=left;verticalAlign=middle;points=[];fillColor=none;strokeColor=none;rounded=0;dashed=1;fontSize=13;labelBackgroundColor=#FF0000;fontColor=#FFFFFF;" vertex="1" parent="g2-eiJZlZVtttxnz69Y9-1">
          <mxGeometry x="652" y="654" width="70" height="20" as="geometry" />
        </mxCell>
        <mxCell id="rldEldRAc6CjuJPPCe8D-70" value="&lt;font style=&quot;font-size: 12px&quot;&gt;fiber card&lt;/font&gt;" style="text;html=1;resizable=0;autosize=1;align=left;verticalAlign=middle;points=[];fillColor=none;strokeColor=none;rounded=0;dashed=1;fontSize=13;labelBackgroundColor=#FF0000;fontColor=#FFFFFF;" vertex="1" parent="g2-eiJZlZVtttxnz69Y9-1">
          <mxGeometry x="652" y="750.5" width="70" height="20" as="geometry" />
        </mxCell>
        <mxCell id="rldEldRAc6CjuJPPCe8D-71" value="&lt;font style=&quot;font-size: 12px&quot;&gt;fiber card&lt;/font&gt;" style="text;html=1;resizable=0;autosize=1;align=left;verticalAlign=middle;points=[];fillColor=none;strokeColor=none;rounded=0;dashed=1;fontSize=13;labelBackgroundColor=#FF0000;fontColor=#FFFFFF;" vertex="1" parent="g2-eiJZlZVtttxnz69Y9-1">
          <mxGeometry x="652" y="789.5" width="70" height="20" as="geometry" />
        </mxCell>
        <mxCell id="rldEldRAc6CjuJPPCe8D-73" value="&lt;font style=&quot;font-size: 50px&quot;&gt;}&lt;/font&gt;" style="text;html=1;resizable=0;autosize=1;align=center;verticalAlign=middle;points=[];fillColor=none;strokeColor=none;rounded=0;dashed=1;labelBackgroundColor=none;fontSize=13;" vertex="1" parent="g2-eiJZlZVtttxnz69Y9-1">
          <mxGeometry x="722" y="497" width="30" height="30" as="geometry" />
        </mxCell>
        <mxCell id="rldEldRAc6CjuJPPCe8D-75" value="&lt;font style=&quot;font-size: 13px&quot;&gt;data&lt;/font&gt;" style="html=1;shadow=0;dashed=0;align=center;verticalAlign=middle;shape=mxgraph.arrows2.arrow;dy=0;dx=10;notch=0;fontSize=15;strokeColor=#000000;strokeWidth=1;direction=west;fillColor=#FFFF00;" vertex="1" parent="g2-eiJZlZVtttxnz69Y9-1">
          <mxGeometry x="767" y="653" width="120" height="21" as="geometry" />
        </mxCell>
        <mxCell id="rldEldRAc6CjuJPPCe8D-76" value="&lt;font style=&quot;font-size: 50px&quot;&gt;}&lt;/font&gt;" style="text;html=1;resizable=0;autosize=1;align=center;verticalAlign=middle;points=[];fillColor=none;strokeColor=none;rounded=0;dashed=1;labelBackgroundColor=none;fontSize=13;" vertex="1" parent="g2-eiJZlZVtttxnz69Y9-1">
          <mxGeometry x="722" y="625" width="30" height="30" as="geometry" />
        </mxCell>
        <mxCell id="rldEldRAc6CjuJPPCe8D-77" value="&lt;font style=&quot;font-size: 13px&quot;&gt;fiber san&lt;/font&gt;" style="html=1;shadow=0;dashed=0;align=center;verticalAlign=middle;shape=mxgraph.arrows2.arrow;dy=0;dx=10;notch=0;fontSize=15;strokeColor=#000000;strokeWidth=1;direction=west;fillColor=#FFFF00;" vertex="1" parent="g2-eiJZlZVtttxnz69Y9-1">
          <mxGeometry x="767" y="768" width="120" height="21" as="geometry" />
        </mxCell>
        <mxCell id="rldEldRAc6CjuJPPCe8D-78" value="&lt;font style=&quot;font-size: 50px&quot;&gt;}&lt;/font&gt;" style="text;html=1;resizable=0;autosize=1;align=center;verticalAlign=middle;points=[];fillColor=none;strokeColor=none;rounded=0;dashed=1;labelBackgroundColor=none;fontSize=13;" vertex="1" parent="g2-eiJZlZVtttxnz69Y9-1">
          <mxGeometry x="722" y="760.5" width="30" height="30" as="geometry" />
        </mxCell>
        <mxCell id="rldEldRAc6CjuJPPCe8D-79" value="&lt;font style=&quot;font-size: 13px&quot;&gt;vsan、vmotion、ft&lt;/font&gt;" style="html=1;shadow=0;dashed=0;align=center;verticalAlign=middle;shape=mxgraph.arrows2.arrow;dy=0;dx=10;notch=0;fontSize=15;strokeColor=#000000;strokeWidth=1;direction=west;fillColor=#FFFF00;" vertex="1" parent="g2-eiJZlZVtttxnz69Y9-1">
          <mxGeometry x="767" y="620.5" width="120" height="21" as="geometry" />
        </mxCell>
        <mxCell id="rldEldRAc6CjuJPPCe8D-82" value="" style="shadow=0;dashed=0;html=1;labelPosition=center;verticalLabelPosition=bottom;verticalAlign=top;align=center;outlineConnect=0;shape=mxgraph.veeam.3d.vmware_host;aspect=fixed;" vertex="1" parent="g2-eiJZlZVtttxnz69Y9-1">
          <mxGeometry x="1202" y="619" width="134.7" height="120" as="geometry" />
        </mxCell>
      </root>
    </mxGraphModel>
  </diagram>
</mxfile>
